<svg xmlns="http://www.w3.org/2000/svg" version="1.1" xmlns:xlink="http://www.w3.org/1999/xlink" xmlns:svgjs="http://svgjs.com/svgjs" height="313" style="width: 100%;"><rect id="SvgjsRect1342" width="65.203" height="50" rx="50" ry="50" x="508.42599999999993" y="170" stroke="black" stroke-width="2" fill="transparent"></rect><rect id="SvgjsRect1337" width="65.203" height="50" rx="50" ry="50" x="413.22299999999996" y="170" stroke="black" stroke-width="2" fill="transparent"></rect><rect id="SvgjsRect1332" width="65.203" height="50" rx="50" ry="50" x="318.02" y="170" stroke="black" stroke-width="2" fill="transparent"></rect><rect id="SvgjsRect1327" width="124.00999999999999" height="50" rx="50" ry="50" x="197.614" y="90" stroke="black" stroke-width="2" fill="transparent"></rect><rect id="SvgjsRect1322" width="65.203" height="50" rx="50" ry="50" x="486.015" y="250" stroke="black" stroke-width="2" fill="transparent"></rect><rect id="SvgjsRect1317" width="65.203" height="50" rx="50" ry="50" x="390.812" y="250" stroke="black" stroke-width="2" fill="transparent"></rect><rect id="SvgjsRect1312" width="65.203" height="50" rx="50" ry="50" x="295.60900000000004" y="250" stroke="black" stroke-width="2" fill="transparent"></rect><rect id="SvgjsRect1307" width="124.00999999999999" height="50" rx="50" ry="50" x="164.01" y="170" stroke="black" stroke-width="2" fill="transparent"></rect><rect id="SvgjsRect1302" width="65.203" height="50" rx="50" ry="50" x="200.406" y="250" stroke="black" stroke-width="2" fill="transparent"></rect><rect id="SvgjsRect1297" width="65.203" height="50" rx="50" ry="50" x="105.203" y="250" stroke="black" stroke-width="2" fill="transparent"></rect><rect id="SvgjsRect1292" width="65.203" height="50" rx="50" ry="50" x="10" y="250" stroke="black" stroke-width="2" fill="transparent"></rect><rect id="SvgjsRect1287" width="124.00999999999999" height="50" rx="50" ry="50" x="10" y="170" stroke="black" stroke-width="2" fill="transparent"></rect><rect id="SvgjsRect1282" width="157.614" height="50" rx="50" ry="50" x="10" y="90" stroke="black" stroke-width="2" fill="transparent"></rect><rect id="SvgjsRect1277" width="149.213" height="50" rx="50" ry="50" x="10" y="10" stroke="black" stroke-width="2" fill="transparent"></rect><text id="SvgjsText1278" font-family="Monaco, monospace" x="30" y="22" fill="black" font-size="14"><tspan id="SvgjsTspan1279" dy="18.2" x="30">or_expression</tspan></text><polygon id="SvgjsPolygon1280" points="88.807,90 78.807,95 78.807,85" fill="black" transform="matrix(0.1386640328819116,0.9903394801707767,-0.9903394801707767,0.1386640328819116,165.62321644722599,-10.42884117489821)"></polygon><line id="SvgjsLine1281" x1="84.6065" y1="60" x2="88.11367983559045" y2="85.04830259914611" stroke="black" stroke-width="2"></line><text id="SvgjsText1283" font-family="Monaco, monospace" x="30" y="102" fill="black" font-size="14"><tspan id="SvgjsTspan1284" dy="18.2" x="30">and_expression</tspan></text><polygon id="SvgjsPolygon1285" points="72.005,170 62.004999999999995,175 62.004999999999995,165" fill="black" transform="matrix(-0.48864764769861585,0.8724812183643894,-0.8724812183643894,-0.48864764769861585,255.511880994485,190.24708998043684)"></polygon><line id="SvgjsLine1286" x1="88.807" y1="140" x2="74.44823823849308" y2="165.63759390817805" stroke="black" stroke-width="2"></line><text id="SvgjsText1288" font-family="Monaco, monospace" x="30" y="182" fill="black" font-size="14"><tspan id="SvgjsTspan1289" dy="18.2" x="30">comparison</tspan></text><polygon id="SvgjsPolygon1290" points="42.6015,250 32.6015,255 32.6015,245" fill="black" transform="matrix(-0.6999710826362419,0.7141711863923434,-0.7141711863923434,-0.6999710826362419,250.96411467501372,394.56800686196704)"></polygon><line id="SvgjsLine1291" x1="72.005" y1="220" x2="46.10135541318121" y2="246.42914406803828" stroke="black" stroke-width="2"></line><text id="SvgjsText1293" font-family="Monaco, monospace" x="30" y="262" fill="black" font-size="14"><tspan id="SvgjsTspan1294" dy="18.2" x="30">'5'</tspan></text><polygon id="SvgjsPolygon1295" points="137.80450000000002,250 127.80450000000002,255 127.80450000000002,245" fill="black" transform="matrix(0.9098911246043312,0.41484713011694496,-0.41484713011694496,0.9098911246043312,116.12919104869869,-34.64058249328332)"></polygon><line id="SvgjsLine1296" x1="72.005" y1="220" x2="133.25504437697836" y2="247.92576434941526" stroke="black" stroke-width="2"></line><text id="SvgjsText1298" font-family="Monaco, monospace" x="125.203" y="262" fill="black" font-size="14"><tspan id="SvgjsTspan1299" dy="18.2" x="125.203">'&gt;'</tspan></text><polygon id="SvgjsPolygon1300" points="233.0075,250 223.0075,255 223.0075,245" fill="black" transform="matrix(0.9830794531891864,0.1831796624007428,-0.1831796624007428,0.9830794531891864,49.73752991120634,-38.45209848413771)"></polygon><line id="SvgjsLine1301" x1="72.005" y1="220" x2="228.09210273405407" y2="249.08410168799628" stroke="black" stroke-width="2"></line><text id="SvgjsText1303" font-family="Monaco, monospace" x="220.406" y="262" fill="black" font-size="14"><tspan id="SvgjsTspan1304" dy="18.2" x="220.406">'2'</tspan></text><polygon id="SvgjsPolygon1305" points="226.015,170 216.015,175 216.015,165" fill="black" transform="matrix(0.9769211934415399,0.21360005104109236,-0.21360005104109236,0.9769211934415399,41.52816514129606,-44.35341842111427)"></polygon><line id="SvgjsLine1306" x1="88.807" y1="140" x2="221.13039403279228" y2="168.93199974479452" stroke="black" stroke-width="2"></line><text id="SvgjsText1308" font-family="Monaco, monospace" x="184.01" y="182" fill="black" font-size="14"><tspan id="SvgjsTspan1309" dy="18.2" x="184.01">comparison</tspan></text><polygon id="SvgjsPolygon1310" points="328.2105,250 318.2105,255 318.2105,245" fill="black" transform="matrix(0.9595115150623224,0.2816694027806475,-0.2816694027806475,0.9595115150623224,83.70609658079951,-82.32473428691833)"></polygon><line id="SvgjsLine1311" x1="226.015" y1="220" x2="323.4129424246884" y2="248.59165298609676" stroke="black" stroke-width="2"></line><text id="SvgjsText1313" font-family="Monaco, monospace" x="315.60900000000004" y="262" fill="black" font-size="14"><tspan id="SvgjsTspan1314" dy="18.2" x="315.60900000000004">'2'</tspan></text><polygon id="SvgjsPolygon1315" points="423.4135,250 413.4135,255 413.4135,245" fill="black" transform="matrix(0.9886477970789058,0.15025156681721075,-0.15025156681721075,0.9886477970789058,42.369567675833366,-60.78049105628554)"></polygon><line id="SvgjsLine1316" x1="226.015" y1="220" x2="418.47026101460546" y2="249.24874216591394" stroke="black" stroke-width="2"></line><text id="SvgjsText1318" font-family="Monaco, monospace" x="410.812" y="262" fill="black" font-size="14"><tspan id="SvgjsTspan1319" dy="18.2" x="410.812">'&lt;'</tspan></text><polygon id="SvgjsPolygon1320" points="518.6165,250 508.6165,255 508.6165,245" fill="black" transform="matrix(0.9947850302303981,0.10199384113516828,-0.10199384113516828,0.9947850302303981,28.203029653308818,-51.5919464686765)"></polygon><line id="SvgjsLine1321" x1="226.015" y1="220" x2="513.642574848848" y2="249.49003079432416" stroke="black" stroke-width="2"></line><text id="SvgjsText1323" font-family="Monaco, monospace" x="506.015" y="262" fill="black" font-size="14"><tspan id="SvgjsTspan1324" dy="18.2" x="506.015">'3'</tspan></text><polygon id="SvgjsPolygon1325" points="259.619,90 249.61900000000003,95 249.61900000000003,85" fill="black" transform="matrix(0.9856242644829369,0.16895209161910207,-0.16895209161910207,0.9856242644829369,18.937902324923584,-42.569356877524)"></polygon><line id="SvgjsLine1326" x1="84.6065" y1="60" x2="254.69087867758535" y2="89.15523954190449" stroke="black" stroke-width="2"></line><text id="SvgjsText1328" font-family="Monaco, monospace" x="217.614" y="102" fill="black" font-size="14"><tspan id="SvgjsTspan1329" dy="18.2" x="217.614">comparison</tspan></text><polygon id="SvgjsPolygon1330" points="350.62149999999997,170 340.62149999999997,175 340.62149999999997,165" fill="black" transform="matrix(0.9497243393813148,0.31308733475936884,-0.31308733475936884,0.9497243393813148,70.85257444870706,-101.22828863915555)"></polygon><line id="SvgjsLine1331" x1="259.619" y1="140" x2="345.8728783030934" y2="168.43456332620315" stroke="black" stroke-width="2"></line><text id="SvgjsText1333" font-family="Monaco, monospace" x="338.02" y="182" fill="black" font-size="14"><tspan id="SvgjsTspan1334" dy="18.2" x="338.02">'3'</tspan></text><polygon id="SvgjsPolygon1335" points="445.82449999999994,170 435.82449999999994,175 435.82449999999994,165" fill="black" transform="matrix(0.9872687318411228,0.15906115531084586,-0.15906115531084586,0.9872687318411228,32.716307664141084,-68.74904444887108)"></polygon><line id="SvgjsLine1336" x1="259.619" y1="140" x2="440.88815634079435" y2="169.20469422344578" stroke="black" stroke-width="2"></line><text id="SvgjsText1338" font-family="Monaco, monospace" x="433.22299999999996" y="182" fill="black" font-size="14"><tspan id="SvgjsTspan1339" dy="18.2" x="433.22299999999996">'&gt;'</tspan></text><polygon id="SvgjsPolygon1340" points="541.0274999999999,170 531.0274999999999,175 531.0274999999999,165" fill="black" transform="matrix(0.9943654994009071,0.10600591304821007,-0.10600591304821007,0.9943654994009071,21.0694249910714,-56.394249019844665)"></polygon><line id="SvgjsLine1341" x1="259.619" y1="140" x2="536.0556725029954" y2="169.46997043475895" stroke="black" stroke-width="2"></line><text id="SvgjsText1343" font-family="Monaco, monospace" x="528.4259999999999" y="182" fill="black" font-size="14"><tspan id="SvgjsTspan1344" dy="18.2" x="528.4259999999999">'4'</tspan></text></svg>