<svg xmlns="http://www.w3.org/2000/svg" version="1.1" xmlns:xlink="http://www.w3.org/1999/xlink" xmlns:svgjs="http://svgjs.com/svgjs" height="153" style="width: 100%;"><rect id="SvgjsRect1022" width="65.203" height="50" rx="50" ry="50" x="200.406" y="90" stroke="black" stroke-width="2" fill="transparent"></rect><rect id="SvgjsRect1017" width="65.203" height="50" rx="50" ry="50" x="105.203" y="90" stroke="black" stroke-width="2" fill="transparent"></rect><rect id="SvgjsRect1012" width="65.203" height="50" rx="50" ry="50" x="10" y="90" stroke="black" stroke-width="2" fill="transparent"></rect><rect id="SvgjsRect1007" width="124.00999999999999" height="50" rx="50" ry="50" x="10" y="10" stroke="black" stroke-width="2" fill="transparent"></rect><text id="SvgjsText1008" font-family="Monaco, monospace" x="30" y="22" fill="black" font-size="14"><tspan id="SvgjsTspan1009" dy="18.2" x="30">comparison</tspan></text><polygon id="SvgjsPolygon1010" points="42.6015,90 32.6015,95 32.6015,85" fill="black" transform="matrix(-0.6999710826362419,0.7141711863923434,-0.7141711863923434,-0.6999710826362419,136.6967248522388,122.57263364016835)"></polygon><line id="SvgjsLine1011" x1="72.005" y1="60" x2="46.10135541318121" y2="86.42914406803828" stroke="black" stroke-width="2"></line><text id="SvgjsText1013" font-family="Monaco, monospace" x="30" y="102" fill="black" font-size="14"><tspan id="SvgjsTspan1014" dy="18.2" x="30">'5'</tspan></text><polygon id="SvgjsPolygon1015" points="137.80450000000002,90 127.80450000000002,95 127.80450000000002,85" fill="black" transform="matrix(0.9098911246043312,0.41484713011694496,-0.41484713011694496,0.9098911246043312,49.753650229987485,-49.05800255659034)"></polygon><line id="SvgjsLine1016" x1="72.005" y1="60" x2="133.25504437697836" y2="87.92576434941527" stroke="black" stroke-width="2"></line><text id="SvgjsText1018" font-family="Monaco, monospace" x="125.203" y="102" fill="black" font-size="14"><tspan id="SvgjsTspan1019" dy="18.2" x="125.203">'&gt;'</tspan></text><polygon id="SvgjsPolygon1020" points="233.0075,90 223.0075,95 223.0075,85" fill="black" transform="matrix(0.9830794531891864,0.1831796624007428,-0.1831796624007428,0.9830794531891864,20.428783927087494,-41.15938597386784)"></polygon><line id="SvgjsLine1021" x1="72.005" y1="60" x2="228.09210273405407" y2="89.08410168799628" stroke="black" stroke-width="2"></line><text id="SvgjsText1023" font-family="Monaco, monospace" x="220.406" y="102" fill="black" font-size="14"><tspan id="SvgjsTspan1024" dy="18.2" x="220.406">'2'</tspan></text></svg>