<svg xmlns="http://www.w3.org/2000/svg" version="1.1" xmlns:xlink="http://www.w3.org/1999/xlink" xmlns:svgjs="http://svgjs.com/svgjs" height="233" style="width: 100%;"><rect id="SvgjsRect1066" width="65.203" height="50" rx="50" ry="50" x="486.015" y="170" stroke="black" stroke-width="2" fill="transparent"></rect><rect id="SvgjsRect1061" width="65.203" height="50" rx="50" ry="50" x="390.812" y="170" stroke="black" stroke-width="2" fill="transparent"></rect><rect id="SvgjsRect1056" width="65.203" height="50" rx="50" ry="50" x="295.60900000000004" y="170" stroke="black" stroke-width="2" fill="transparent"></rect><rect id="SvgjsRect1051" width="124.00999999999999" height="50" rx="50" ry="50" x="164.01" y="90" stroke="black" stroke-width="2" fill="transparent"></rect><rect id="SvgjsRect1046" width="65.203" height="50" rx="50" ry="50" x="200.406" y="170" stroke="black" stroke-width="2" fill="transparent"></rect><rect id="SvgjsRect1041" width="65.203" height="50" rx="50" ry="50" x="105.203" y="170" stroke="black" stroke-width="2" fill="transparent"></rect><rect id="SvgjsRect1036" width="65.203" height="50" rx="50" ry="50" x="10" y="170" stroke="black" stroke-width="2" fill="transparent"></rect><rect id="SvgjsRect1031" width="124.00999999999999" height="50" rx="50" ry="50" x="10" y="90" stroke="black" stroke-width="2" fill="transparent"></rect><rect id="SvgjsRect1026" width="157.614" height="50" rx="50" ry="50" x="10" y="10" stroke="black" stroke-width="2" fill="transparent"></rect><text id="SvgjsText1027" font-family="Monaco, monospace" x="30" y="22" fill="black" font-size="14"><tspan id="SvgjsTspan1028" dy="18.2" x="30">and_expression</tspan></text><polygon id="SvgjsPolygon1029" points="72.005,90 62.004999999999995,95 62.004999999999995,85" fill="black" transform="matrix(-0.48864764769861585,0.8724812183643894,-0.8724812183643894,-0.48864764769861585,185.71338352533388,71.15527816454757)"></polygon><line id="SvgjsLine1030" x1="88.807" y1="60" x2="74.44823823849308" y2="85.63759390817805" stroke="black" stroke-width="2"></line><text id="SvgjsText1032" font-family="Monaco, monospace" x="30" y="102" fill="black" font-size="14"><tspan id="SvgjsTspan1033" dy="18.2" x="30">comparison</tspan></text><polygon id="SvgjsPolygon1034" points="42.6015,170 32.6015,175 32.6015,165" fill="black" transform="matrix(-0.6999710826362419,0.7141711863923434,-0.7141711863923434,-0.6999710826362419,193.83041976362625,258.5703202510677)"></polygon><line id="SvgjsLine1035" x1="72.005" y1="140" x2="46.10135541318121" y2="166.42914406803828" stroke="black" stroke-width="2"></line><text id="SvgjsText1037" font-family="Monaco, monospace" x="30" y="182" fill="black" font-size="14"><tspan id="SvgjsTspan1038" dy="18.2" x="30">'5'</tspan></text><polygon id="SvgjsPolygon1039" points="137.80450000000002,170 127.80450000000002,175 127.80450000000002,165" fill="black" transform="matrix(0.9098911246043312,0.41484713011694496,-0.41484713011694496,0.9098911246043312,82.94142063934308,-41.84929252493686)"></polygon><line id="SvgjsLine1040" x1="72.005" y1="140" x2="133.25504437697836" y2="167.92576434941526" stroke="black" stroke-width="2"></line><text id="SvgjsText1042" font-family="Monaco, monospace" x="125.203" y="182" fill="black" font-size="14"><tspan id="SvgjsTspan1043" dy="18.2" x="125.203">'&gt;'</tspan></text><polygon id="SvgjsPolygon1044" points="233.0075,170 223.0075,175 223.0075,165" fill="black" transform="matrix(0.9830794531891864,0.1831796624007428,-0.1831796624007428,0.9830794531891864,35.083156919146916,-39.80574222900276)"></polygon><line id="SvgjsLine1045" x1="72.005" y1="140" x2="228.09210273405407" y2="169.08410168799628" stroke="black" stroke-width="2"></line><text id="SvgjsText1047" font-family="Monaco, monospace" x="220.406" y="182" fill="black" font-size="14"><tspan id="SvgjsTspan1048" dy="18.2" x="220.406">'2'</tspan></text><polygon id="SvgjsPolygon1049" points="226.015,90 216.015,95 216.015,85" fill="black" transform="matrix(0.9769211934415399,0.21360005104109236,-0.21360005104109236,0.9769211934415399,24.44016105800867,-46.19972294579108)"></polygon><line id="SvgjsLine1050" x1="88.807" y1="60" x2="221.13039403279228" y2="88.93199974479454" stroke="black" stroke-width="2"></line><text id="SvgjsText1052" font-family="Monaco, monospace" x="184.01" y="102" fill="black" font-size="14"><tspan id="SvgjsTspan1053" dy="18.2" x="184.01">comparison</tspan></text><polygon id="SvgjsPolygon1054" points="328.2105,170 318.2105,175 318.2105,165" fill="black" transform="matrix(0.9595115150623224,0.2816694027806475,-0.2816694027806475,0.9595115150623224,61.17254435834769,-85.56381308193252)"></polygon><line id="SvgjsLine1055" x1="226.015" y1="140" x2="323.4129424246884" y2="168.59165298609676" stroke="black" stroke-width="2"></line><text id="SvgjsText1057" font-family="Monaco, monospace" x="315.60900000000004" y="182" fill="black" font-size="14"><tspan id="SvgjsTspan1058" dy="18.2" x="315.60900000000004">'2'</tspan></text><polygon id="SvgjsPolygon1059" points="423.4135,170 413.4135,175 413.4135,165" fill="black" transform="matrix(0.9886477970789058,0.15025156681721075,-0.15025156681721075,0.9886477970789058,30.349442330456498,-61.68866728997304)"></polygon><line id="SvgjsLine1060" x1="226.015" y1="140" x2="418.47026101460546" y2="169.24874216591394" stroke="black" stroke-width="2"></line><text id="SvgjsText1062" font-family="Monaco, monospace" x="410.812" y="182" fill="black" font-size="14"><tspan id="SvgjsTspan1063" dy="18.2" x="410.812">'&lt;'</tspan></text><polygon id="SvgjsPolygon1064" points="518.6165,170 508.6165,175 508.6165,165" fill="black" transform="matrix(0.9947850302303981,0.10199384113516828,-0.10199384113516828,0.9947850302303981,20.043522362495366,-52.009144050244686)"></polygon><line id="SvgjsLine1065" x1="226.015" y1="140" x2="513.642574848848" y2="169.49003079432416" stroke="black" stroke-width="2"></line><text id="SvgjsText1067" font-family="Monaco, monospace" x="506.015" y="182" fill="black" font-size="14"><tspan id="SvgjsTspan1068" dy="18.2" x="506.015">'3'</tspan></text></svg>