<?xml version="1.0" encoding="utf-8"?>
<!-- Generator: Adobe Illustrator 25.4.1, SVG Export Plug-In . SVG Version: 6.00 Build 0)  -->
<svg version="1.1" id="Layer_1" xmlns="http://www.w3.org/2000/svg" xmlns:xlink="http://www.w3.org/1999/xlink" x="0px" y="0px"
	 viewBox="0 0 303 476" style="enable-background:new 0 0 303 476;" xml:space="preserve">
<style type="text/css">
	.st0{fill:#FFFFFF;}
	.st1{fill:#C43189;stroke:#000000;}
	.st2{font-family:'Helvetica';}
	.st3{font-size:10px;}
	.st4{fill:#4BA135;stroke:#000000;}
	.st5{fill:none;stroke:#000000;}
	.st6{fill:#B68E53;stroke:#000000;}
	.st7{fill:#3AB0B0;stroke:#000000;}
	.st8{fill:#B1CE3B;stroke:#000000;}
	.st9{fill:#31C46C;stroke:#000000;}
	.st10{fill:#3A69B0;stroke:#000000;}
	.st11{fill:#5946A4;stroke:#000000;}
	.st12{fill:#A253B6;stroke:#000000;}
</style>
<g id="graph0" transform="scale(1 1) rotate(0) translate(4 472)">
	<polygon class="st0" points="-3.9,4 -3.9,-472 298.9,-472 298.9,4 	"/>
	<g id="node4">
		<ellipse class="st1" cx="159.8" cy="-306" rx="30" ry="18"/>
		<text transform="matrix(1 0 0 1 142.2627 -303.5)" class="st0 st2 st3">scheme</text>
	</g>
	<g id="node2">
		<ellipse class="st4" cx="146.8" cy="-450" rx="27" ry="18"/>
		<text transform="matrix(1 0 0 1 134.0723 -447.5)" class="st2 st3">buffer</text>
	</g>
	<g id="node8">
		<ellipse class="st4" cx="122.8" cy="-378" rx="48.7" ry="18"/>
		<g>
			<text transform="matrix(1 0 0 1 88.0288 -375.5)" class="st2 st3">scheme_reader</text>
		</g>
	</g>
	<g id="edge2">
		<path class="st5" d="M141-432c-2.7,7.9-6,17.4-9,26.3"/>
		<polygon class="st6" points="135.2,-404.6 128.7,-396.3 128.6,-406.9 		"/>
	</g>
	<g id="node3">
		<ellipse class="st1" cx="264.8" cy="-450" rx="27" ry="18"/>
		<g>
			<text transform="matrix(1 0 0 1 256.4326 -447.5)" class="st0 st2 st3">pair</text>
		</g>
	</g>
	<g id="node5">
		<ellipse class="st7" cx="206.8" cy="-162" rx="53" ry="18"/>
		<text transform="matrix(1 0 0 1 169.8096 -159.5)" class="st2 st3">scheme_classes</text>
	</g>
	<g id="edge3">
		<path class="st5" d="M270.6-432.3c11.8,36.4,36,125.6,17.2,197.3"/>
		<path class="st5" d="M287.8-233c-6.7,21.7-25.4,38.6-43.1,50.4"/>
		<polygon class="st8" points="246.4,-179.6 236,-177.3 242.7,-185.5 		"/>
	</g>
	<g id="node6">
		<ellipse class="st7" cx="163.8" cy="-18" rx="60.8" ry="18"/>
		<text transform="matrix(1 0 0 1 119.5757 -15.5)" class="st2 st3">scheme_eval_apply</text>
	</g>
	<g id="edge4">
		<path class="st5" d="M287.8-233c-21.3,69.5,13.2,101.8-29,161c-11.4,16-29.2,27.7-46.3,36"/>
		<polygon class="st8" points="213.7,-32.7 203.1,-31.7 210.8,-39.1 		"/>
	</g>
	<g id="edge5">
		<path class="st5" d="M243.5-438.5c-22.1,10.9-57,28.1-83.7,41.2"/>
		<polygon class="st8" points="161.3,-394.1 150.8,-392.8 158.2,-400.4 		"/>
	</g>
	<g id="node10">
		<ellipse class="st1" cx="159.8" cy="-234" rx="43.6" ry="18"/>
		<text transform="matrix(1 0 0 1 130.5903 -231.5)" class="st0 st2 st3">scheme_utils</text>
	</g>
	<g id="edge6">
		<path class="st5" d="M159.8-287.7c0,7.7,0,17,0,25.6"/>
		<polygon class="st4" points="163.3,-262.1 159.8,-252.1 156.3,-262.1 		"/>
	</g>
	<g id="edge7">
		<path class="st5" d="M212.3-180.1c5-18.5,10.2-48.4,0.5-71.9c-5.4-13-15.7-24.5-25.8-33.4"/>
		<polygon class="st9" points="184.5,-282.9 179.1,-292 189,-288.3 		"/>
	</g>
	<g id="node7">
		<ellipse class="st7" cx="201.8" cy="-90" rx="47.9" ry="18"/>
		<g>
			<text transform="matrix(1 0 0 1 168.9819 -87.5)" class="st2 st3">scheme_forms</text>
		</g>
	</g>
	<g id="edge8">
		<path class="st5" d="M205.5-143.7c-0.6,7.7-1.2,17-1.8,25.6"/>
		<polygon class="st9" points="207.2,-117.8 203,-108.1 200.2,-118.3 		"/>
	</g>
	<g id="edge10">
		<path class="st5" d="M151.4-35.8c-16.7-23.9-46.1-69.7-60.8-115.4"/>
		<polygon class="st7" points="87.3,-150.4 87.8,-161 94,-152.4 		"/>
		<path class="st5" d="M87.8-163c-13.3-38.2-0.3-53.5,19-89c8.5-15.7,23.1-29.7,34.8-39.4"/>
	</g>
	<g id="edge12">
		<path class="st5" d="M163.5-100.7c-25.7-8.7-57.3-24.4-71.6-50.9"/>
		<polygon class="st10" points="88.6,-150.4 87.8,-161 95,-153.3 		"/>
	</g>
	<g id="edge13">
		<path class="st5" d="M187.7-63.1c-3.2,5.9-6.6,12.1-9.8,18"/>
		<polygon class="st10" points="184.7,-64.9 192.6,-72.1 190.9,-61.6 		"/>
		<polygon class="st10" points="181,-43.4 173.1,-36.3 174.8,-46.7 		"/>
	</g>
	<g id="edge14">
		<path class="st5" d="M131.7-360c4.4,8.3,9.8,18.4,14.6,27.6"/>
		<polygon class="st11" points="149.6,-333.8 151.1,-323.3 143.4,-330.5 		"/>
	</g>
	<g id="node9">
		<ellipse class="st1" cx="50.8" cy="-450" rx="50.8" ry="18"/>
		<text transform="matrix(1 0 0 1 15.7505 -447.5)" class="st0 st2 st3">scheme_tokens</text>
	</g>
	<g id="edge15">
		<path class="st5" d="M67.5-432.8c9.4,9.1,21.2,20.6,31.5,30.6"/>
		<polygon class="st12" points="101.4,-404.6 106.2,-395.1 96.6,-399.6 		"/>
	</g>
	<g id="edge16">
		<path class="st5" d="M176.6-207.9c4.3,6.4,8.9,13.2,13.2,19.6"/>
		<polygon class="st1" points="173.6,-206.2 170.9,-216.4 179.4,-210.1 		"/>
		<polygon class="st1" points="192.7,-190.2 195.4,-180 186.9,-186.3 		"/>
	</g>
	<g id="edge17">
		<path class="st5" d="M146.5-216.8c-9.7,13.6-21.2,33.8-20.7,53.8"/>
		<path class="st5" d="M125.8-161c0.9,41.4,15.9,87.3,26.8,115.4"/>
		<polygon class="st1" points="155.9,-46.7 156.3,-36.1 149.4,-44.1 		"/>
	</g>
	<g id="edge18">
		<path class="st5" d="M125.8-161c0.5,22.6,18.9,39.9,37.5,51.7"/>
		<polygon class="st1" points="165.2,-112.2 172.1,-104.2 161.7,-106.2 		"/>
	</g>
</g>
</svg>
